<svg width="16" height="16" viewBox="0 0 16 16" fill="none" xmlns="http://www.w3.org/2000/svg">
<g clip-path="url(#clip0_529_371)">
<path d="M3.1325 2H0.477634C0.234271 2 0.0351562 2.225 0.0351562 2.5V13.5C0.0351562 13.775 0.234271 14 0.477634 14H3.1325C3.37586 14 3.57498 13.775 3.57498 13.5V2.5C3.57498 2.225 3.37586 2 3.1325 2ZM2.69002 5H0.920112V4H2.69002V5ZM7.55728 2H4.90241C4.65905 2 4.45993 2.225 4.45993 2.5V13.5C4.45993 13.775 4.65905 14 4.90241 14H7.55728C7.80064 14 7.99976 13.775 7.99976 13.5V2.5C7.99976 2.225 7.80064 2 7.55728 2ZM7.1148 5H5.34489V4H7.1148V5Z" fill="black"/>
<path d="M10.6142 2.77296L8.24341 4.12296C8.13899 4.18295 8.05977 4.28711 8.02297 4.41277C7.98618 4.53844 7.9948 4.67544 8.04695 4.79396L12.0293 13.724C12.0823 13.842 12.1745 13.9315 12.2857 13.9731C12.3969 14.0146 12.5182 14.0049 12.6231 13.946L14.9939 12.596C15.0983 12.536 15.1775 12.4318 15.2143 12.3061C15.2511 12.1805 15.2425 12.0435 15.1903 11.925L11.208 2.99496C11.1549 2.87697 11.0628 2.78744 10.9515 2.74587C10.8403 2.70429 10.7191 2.71403 10.6142 2.77296Z" fill="black"/>
<path d="M12.8674 13.5C12.8674 13.6326 12.8208 13.7598 12.7378 13.8536C12.6548 13.9473 12.5423 14 12.4249 14C12.3075 14 12.195 13.9473 12.112 13.8536C12.029 13.7598 11.9824 13.6326 11.9824 13.5C11.9824 13.3674 12.029 13.2402 12.112 13.1464C12.195 13.0527 12.3075 13 12.4249 13C12.5423 13 12.6548 13.0527 12.7378 13.1464C12.8208 13.2402 12.8674 13.3674 12.8674 13.5Z" fill="black"/>
</g>
<defs>
<clipPath id="clip0_529_371">
<rect width="16" height="16" fill="white"/>
</clipPath>
</defs>
</svg>
